<svg width="356" height="141" viewBox="0 0 356 141" fill="none" xmlns="http://www.w3.org/2000/svg">
<path d="M266.809 7.40472C272.048 7.37929 277.51 9.6165 282.688 11.6122C301.162 18.7433 316.44 30.5267 332.477 50.865C333.604 52.3014 337.994 60.2461 338.958 58.2377C339.679 56.725 338.521 54.4622 337.964 53.3436C332.81 42.9584 316.574 26.9295 309.565 21.3619C278.656 -3.22196 243.637 -5.52275 211.497 9.01909C183.766 21.5652 158.981 49.7972 131.115 61.6697C105.099 72.7413 78.5803 70.7711 52.6553 59.1783C49.7209 57.869 46.6773 53.9793 43.7004 55.0725C44.1491 56.814 44.9251 56.4454 45.5193 56.9792C45.8528 58.4283 46.647 58.8097 47.3381 58.2504C47.8717 59.5342 47.8717 59.9664 47.3381 59.5215C46.8046 58.1233 45.7194 57.564 44.913 58.2504C33.0297 50.5727 20.237 38.7384 9.80875 24.3872C8.59012 22.7093 7.0441 17.8916 5.24948 16.2137C2.63031 13.7604 0.126312 14.8409 2.47266 20.1161H0.0414124C-0.0616455 22.3787 -0.00708008 24.0058 0.611328 25.9507C1.5632 28.976 7.57761 38.2299 9.31158 40.7468C13.3556 46.6194 18.115 52.2379 22.4803 56.992C23.6868 59.7503 25.5784 61.3393 27.3306 62.0765C28.1248 63.6146 28.1248 64.0341 27.3306 63.3477C25.7845 60.9579 23.7595 58.5046 21.874 58.2631C20.9221 57.4114 16.4355 53.0896 16.1263 53.1785C14.1256 53.7378 16.678 58.2376 17.06 58.8223C33.6118 83.8638 57.6451 96.7405 77.6527 104.024C78.5439 105.27 79.7565 106.121 81.2904 106.566C82.4303 107.863 80.769 107.177 80.0779 106.566C78.0832 105.486 75.8641 105.066 73.4087 105.295C54.456 101.52 36.1036 91.2365 18.2362 79.8725C16.7144 80.3174 16.3082 81.1563 17.0236 82.4147C31.1623 96.2956 45.3434 102.816 60.0581 111.041C61.2889 111.727 62.8289 112.426 64.0839 112.769C68.5644 114.015 73.8513 112.897 78.259 115.464L80.6114 117.74C95.6959 120.549 110.471 119.367 124.943 114.193C126.223 113.914 127.235 113.494 127.975 112.922C129.4 113.494 131.17 113.723 132.219 111.651C134.153 111.295 134.759 111.715 134.038 112.922C132.219 112.274 130.6 112.693 129.187 114.193C128.108 113.494 127.502 113.914 127.369 115.464C113.424 118.223 99.4488 120.18 85.4435 121.312C79.7201 121.083 74.1605 120.892 68.5583 123.091C62.3923 122.456 57.2086 122.112 50.7576 120.371C44.8948 118.795 39.0198 116.24 33.1812 114.346C32.4901 114.638 31.8232 117.219 32.1748 118.007C32.5568 118.858 41.5845 123.485 42.9365 124.057C48.0597 126.205 54.5652 128.188 59.7732 129.434C63.8899 130.426 70.2863 129.332 73.6996 130.743C75.0456 131.303 75.3973 133.972 76.7493 134.519C80.9146 136.222 95.9081 133.057 100.989 131.989C125.816 126.739 152.687 114.18 177.084 102.766C180.007 101.329 180.207 101.749 177.691 104.037C162.927 115.045 148.631 122.036 133.431 129.459C133.243 130.578 133.85 131.01 135.25 130.731C146.8 126.078 157.75 121.769 169.063 114.549C193.685 98.8378 215.487 80.4952 241.957 82.4273C243.376 83.3044 243.782 84.1433 243.17 84.9696C221.398 89.0372 211.103 98.9649 191.447 115.719C183.402 122.583 175.114 128.392 167.153 135.688L166.771 140.887C168.202 141.23 169.524 140.747 170.906 140.023C180.752 134.862 194.079 119.837 204.21 111.969C241.83 82.7834 266.609 86.8 303.629 115.172C304.666 115.973 305.673 116.952 306.818 116.736C307.073 114.155 304.836 111.702 303.987 110.609C286.605 88.0839 261.444 76.7581 241.133 76.4403C235.252 76.3513 227.904 78.9064 221.338 78.6013C219.658 78.6395 218.245 79.0589 217.094 79.8725C216.324 79.5928 216.123 79.1733 216.487 78.6013C217.421 79.2115 218.609 79.3386 218.912 77.3302C237.889 66.0298 267.81 62.9281 286.944 72.6142C305.842 82.1858 320.357 104.443 335.623 128.214C339.394 128.265 336.466 114.511 335.933 110.38C337.867 109.426 339.37 113.011 341.092 113.024C346.652 113.049 337.879 93.4227 338.358 92.5964C341.213 92.1388 342.953 98.4437 345.457 99.9564C346.555 100.617 347.792 101.266 347.452 97.6684H348.058C349.186 99.7658 354.679 109.096 355.94 106.554C356.195 104.202 355.582 103.033 355.128 101.278C346.706 68.8135 309.759 34.5055 293.207 22.633C284.859 15.057 275.194 14.0146 266.821 7.40472C265.706 7.11659 265.706 7.11659 266.821 7.40472H266.809Z" fill="url(#paint0_radial_0_54)"/>
<defs>
<radialGradient id="paint0_radial_0_54" cx="0" cy="0" r="1" gradientUnits="userSpaceOnUse" gradientTransform="translate(177.313 62.3261) rotate(-90) scale(76.6304 193.478)">
<stop stop-color="#FFE4B4"/>
<stop offset="1" stop-color="#FBB943"/>
</radialGradient>
</defs>
</svg>
