<svg width="650" height="141" viewBox="0 0 650 141" fill="none" xmlns="http://www.w3.org/2000/svg">
<path d="M162.848 7.40472C153.284 7.37929 143.31 9.6165 133.856 11.6122C100.126 18.7433 72.2298 30.5267 42.9499 50.865C40.8909 52.3014 32.8762 60.2461 31.1161 58.2377C29.7988 56.725 31.9132 54.4622 32.9316 53.3436C42.341 42.9584 71.9862 26.9295 84.7831 21.3619C141.217 -3.22195 205.157 -5.52275 263.839 9.01909C314.473 21.5652 359.727 49.7972 410.604 61.6697C458.105 72.7413 506.525 70.7711 553.86 59.1783C559.218 57.869 564.775 53.9793 570.21 55.0725C569.391 56.814 567.974 56.4454 566.889 56.9792C566.28 58.4283 564.83 58.8097 563.568 58.2504C562.594 59.5342 562.594 59.9664 563.568 59.5215C564.542 58.1233 566.524 57.564 567.996 58.2504C589.693 50.5727 613.051 38.7384 632.091 24.3872C634.316 22.7093 637.139 17.8916 640.415 16.2137C645.198 13.7604 649.769 14.8409 645.485 20.1161H649.924C650.113 22.3787 650.013 24.0058 648.884 25.9507C647.146 28.976 636.165 38.2299 632.999 40.7468C625.615 46.6194 616.925 52.2379 608.955 56.992C606.752 59.7503 603.298 61.3393 600.099 62.0765C598.649 63.6146 598.649 64.0341 600.099 63.3477C602.922 60.9579 606.619 58.5046 610.062 58.2631C611.8 57.4114 619.991 53.0896 620.556 53.1785C624.209 53.7378 619.549 58.2376 618.851 58.8223C588.63 83.8638 544.749 96.7405 508.218 104.024C506.591 105.27 504.377 106.121 501.577 106.566C499.495 107.863 502.529 107.177 503.79 106.566C507.432 105.486 511.484 105.066 515.967 105.295C550.572 101.52 584.081 91.2365 616.704 79.8725C619.482 80.3174 620.224 81.1563 618.918 82.4147C593.103 96.2956 567.21 102.816 540.343 111.041C538.096 111.727 535.284 112.426 532.993 112.769C524.812 114.015 515.159 112.897 507.111 115.464L502.816 117.74C475.274 120.549 448.297 119.367 421.873 114.193C419.537 113.914 417.689 113.494 416.338 112.922C413.737 113.494 410.504 113.723 408.589 111.651C405.058 111.295 403.951 111.715 405.268 112.922C408.589 112.274 411.545 112.693 414.124 114.193C416.095 113.494 417.202 113.914 417.445 115.464C442.906 118.223 468.422 120.18 493.994 121.312C504.444 121.083 514.595 120.892 524.823 123.091C536.081 122.456 545.546 122.112 557.325 120.371C568.029 118.795 578.756 116.24 589.416 114.346C590.678 114.638 591.896 117.219 591.254 118.007C590.556 118.858 574.073 123.485 571.605 124.057C562.251 126.205 550.373 128.188 540.864 129.434C533.347 130.426 521.668 129.332 515.436 130.743C512.979 131.303 512.336 133.972 509.868 134.519C502.263 136.222 474.887 133.057 465.61 131.989C420.279 126.739 371.217 114.18 326.672 102.766C321.336 101.329 320.971 101.749 325.565 104.037C352.52 115.045 378.623 122.036 406.375 129.459C406.718 130.578 405.611 131.01 403.054 130.731C381.966 126.078 361.974 121.769 341.317 114.549C296.362 98.8378 256.555 80.4952 208.224 82.4273C205.633 83.3044 204.892 84.1433 206.01 84.9696C245.762 89.0372 264.559 98.9649 300.447 115.719C315.137 122.583 330.27 128.392 344.804 135.688L345.502 140.887C342.889 141.23 340.476 140.747 337.952 140.023C319.975 134.862 295.643 119.837 277.145 111.969C208.456 82.7834 163.213 86.8 95.6205 115.172C93.7276 115.973 91.89 116.952 89.7977 116.736C89.3328 114.155 93.4176 111.702 94.9674 110.609C126.705 88.0839 172.645 76.7581 209.729 76.4403C220.467 76.3513 233.884 78.9064 245.872 78.6013C248.939 78.6395 251.518 79.0589 253.621 79.8725C255.027 79.5928 255.393 79.1733 254.728 78.6013C253.024 79.2115 250.854 79.3386 250.3 77.3302C215.652 66.0298 161.022 62.9281 126.085 72.6142C91.58 82.1858 65.0786 104.443 37.2046 128.214C30.3191 128.265 35.6659 114.511 36.64 110.38C33.1087 109.426 30.3634 113.011 27.2195 113.024C17.0684 113.049 33.0866 93.4227 32.212 92.5964C26.9981 92.1388 23.821 98.4437 19.2492 99.9564C17.2455 100.617 14.9872 101.266 15.6072 97.6684H14.5002C12.4412 99.7658 2.41182 109.096 0.109281 106.554C-0.355656 104.202 0.76241 103.033 1.59265 101.278C16.9688 68.8135 84.4288 34.5055 114.65 22.633C129.893 15.057 147.538 14.0146 162.826 7.40472C164.863 7.11659 164.863 7.11659 162.826 7.40472H162.848Z" fill="url(#paint0_radial_0_53)"/>
<path d="M162.848 7.40472C153.284 7.37929 143.31 9.6165 133.856 11.6122C100.126 18.7433 72.2298 30.5267 42.9499 50.865C40.8909 52.3014 32.8762 60.2461 31.1161 58.2377C29.7988 56.725 31.9132 54.4622 32.9316 53.3436C42.341 42.9584 71.9862 26.9295 84.7831 21.3619C141.217 -3.22195 205.157 -5.52275 263.839 9.01909C314.473 21.5652 359.727 49.7972 410.604 61.6697C458.105 72.7413 506.525 70.7711 553.86 59.1783C559.218 57.869 564.775 53.9793 570.21 55.0725C569.391 56.814 567.974 56.4454 566.889 56.9792C566.28 58.4283 564.83 58.8097 563.568 58.2504C562.594 59.5342 562.594 59.9664 563.568 59.5215C564.542 58.1233 566.524 57.564 567.996 58.2504C589.693 50.5727 613.051 38.7384 632.091 24.3872C634.316 22.7093 637.139 17.8916 640.415 16.2137C645.198 13.7604 649.769 14.8409 645.485 20.1161H649.924C650.113 22.3787 650.013 24.0058 648.884 25.9507C647.146 28.976 636.165 38.2299 632.999 40.7468C625.615 46.6194 616.925 52.2379 608.955 56.992C606.752 59.7503 603.298 61.3393 600.099 62.0765C598.649 63.6146 598.649 64.0341 600.099 63.3477C602.922 60.9579 606.619 58.5046 610.062 58.2631C611.8 57.4114 619.991 53.0896 620.556 53.1785C624.209 53.7378 619.549 58.2376 618.851 58.8223C588.63 83.8638 544.749 96.7405 508.218 104.024C506.591 105.27 504.377 106.121 501.577 106.566C499.495 107.863 502.529 107.177 503.79 106.566C507.432 105.486 511.484 105.066 515.967 105.295C550.572 101.52 584.081 91.2365 616.704 79.8725C619.482 80.3174 620.224 81.1563 618.918 82.4147C593.103 96.2956 567.21 102.816 540.343 111.041C538.096 111.727 535.284 112.426 532.993 112.769C524.812 114.015 515.159 112.897 507.111 115.464L502.816 117.74C475.274 120.549 448.297 119.367 421.873 114.193C419.537 113.914 417.689 113.494 416.338 112.922C413.737 113.494 410.504 113.723 408.589 111.651C405.058 111.295 403.951 111.715 405.268 112.922C408.589 112.274 411.545 112.693 414.124 114.193C416.095 113.494 417.202 113.914 417.445 115.464C442.906 118.223 468.422 120.18 493.994 121.312C504.444 121.083 514.595 120.892 524.823 123.091C536.081 122.456 545.546 122.112 557.325 120.371C568.029 118.795 578.756 116.24 589.416 114.346C590.678 114.638 591.896 117.219 591.254 118.007C590.556 118.858 574.073 123.485 571.605 124.057C562.251 126.205 550.373 128.188 540.864 129.434C533.347 130.426 521.668 129.332 515.436 130.743C512.979 131.303 512.336 133.972 509.868 134.519C502.263 136.222 474.887 133.057 465.61 131.989C420.279 126.739 371.217 114.18 326.672 102.766C321.336 101.329 320.971 101.749 325.565 104.037C352.52 115.045 378.623 122.036 406.375 129.459C406.718 130.578 405.611 131.01 403.054 130.731C381.966 126.078 361.974 121.769 341.317 114.549C296.362 98.8378 256.555 80.4952 208.224 82.4273C205.633 83.3044 204.892 84.1433 206.01 84.9696C245.762 89.0372 264.559 98.9649 300.447 115.719C315.137 122.583 330.27 128.392 344.804 135.688L345.502 140.887C342.889 141.23 340.476 140.747 337.952 140.023C319.975 134.862 295.643 119.837 277.145 111.969C208.456 82.7834 163.213 86.8 95.6205 115.172C93.7276 115.973 91.89 116.952 89.7977 116.736C89.3328 114.155 93.4176 111.702 94.9674 110.609C126.705 88.0839 172.645 76.7581 209.729 76.4403C220.467 76.3513 233.884 78.9064 245.872 78.6013C248.939 78.6395 251.518 79.0589 253.621 79.8725C255.027 79.5928 255.393 79.1733 254.728 78.6013C253.024 79.2115 250.854 79.3386 250.3 77.3302C215.652 66.0298 161.022 62.9281 126.085 72.6142C91.58 82.1858 65.0786 104.443 37.2046 128.214C30.3191 128.265 35.6659 114.511 36.64 110.38C33.1087 109.426 30.3634 113.011 27.2195 113.024C17.0684 113.049 33.0866 93.4227 32.212 92.5964C26.9981 92.1388 23.821 98.4437 19.2492 99.9564C17.2455 100.617 14.9872 101.266 15.6072 97.6684H14.5002C12.4412 99.7658 2.41182 109.096 0.109281 106.554C-0.355656 104.202 0.76241 103.033 1.59265 101.278C16.9688 68.8135 84.4288 34.5055 114.65 22.633C129.893 15.057 147.538 14.0146 162.826 7.40472C164.863 7.11659 164.863 7.11659 162.826 7.40472H162.848Z" fill="url(#paint1_radial_0_53)"/>
<defs>
<radialGradient id="paint0_radial_0_53" cx="0" cy="0" r="1" gradientUnits="userSpaceOnUse" gradientTransform="translate(326.255 62.3261) rotate(-90) scale(76.6304 353.261)">
<stop stop-color="#FFE4B4"/>
<stop offset="1" stop-color="#FBB943"/>
</radialGradient>
<radialGradient id="paint1_radial_0_53" cx="0" cy="0" r="1" gradientUnits="userSpaceOnUse" gradientTransform="translate(326.255 62.3261) rotate(-90) scale(76.6304 353.261)">
<stop stop-color="#FFE4B4"/>
<stop offset="1" stop-color="#FBB943"/>
</radialGradient>
</defs>
</svg>
