<svg width="30" height="30" viewBox="0 0 30 30" fill="none" xmlns="http://www.w3.org/2000/svg">
<rect width="30" height="30" rx="4" fill="#B11116"/>
<path d="M15.7987 9.79878C16.8986 9.98312 17.8977 10.5026 18.6953 11.2986C19.493 12.0946 20.0093 13.0917 20.1982 14.1894M15.9666 6.20001C17.9229 6.53098 19.7071 7.45686 21.126 8.86871C22.545 10.2848 23.4685 12.0653 23.8002 14.0176M22.2721 21.7849C22.2721 21.7849 21.21 22.828 20.9497 23.1339C20.5257 23.5863 20.0261 23.8 19.3712 23.8C19.3082 23.8 19.2411 23.8 19.1781 23.7958C17.9313 23.7162 16.7726 23.2302 15.9036 22.8155C13.5275 21.6676 11.4411 20.0379 9.70729 17.9724C8.27575 16.2506 7.31859 14.6586 6.68469 12.9493C6.29427 11.9061 6.15153 11.0933 6.21451 10.3266C6.25649 9.83648 6.4454 9.4301 6.79384 9.08237L8.22537 7.65376C8.43108 7.46104 8.64938 7.35631 8.86348 7.35631C9.12796 7.35631 9.34206 7.51551 9.47639 7.64957C9.48059 7.65376 9.48479 7.65795 9.48899 7.66214C9.74507 7.90094 9.98856 8.14812 10.2446 8.41205C10.3748 8.54612 10.5091 8.68018 10.6435 8.81843L11.7895 9.96216C12.2345 10.4062 12.2345 10.8168 11.7895 11.2609C11.6678 11.3824 11.5502 11.5039 11.4285 11.6212C11.0759 11.9815 11.3529 11.705 10.9876 12.0318C10.9792 12.0402 10.9708 12.0444 10.9666 12.0528C10.6056 12.4131 10.6728 12.765 10.7483 13.0038C10.7525 13.0163 10.7567 13.0289 10.7609 13.0415C11.059 13.7621 11.4788 14.4408 12.1169 15.2493L12.1211 15.2535C13.2798 16.6779 14.5014 17.7882 15.849 18.6386C16.0211 18.7475 16.1974 18.8355 16.3653 18.9193C16.5165 18.9947 16.6592 19.0659 16.781 19.1414C16.7977 19.1497 16.8145 19.1623 16.8313 19.1707C16.9741 19.2419 17.1084 19.2754 17.2469 19.2754C17.5954 19.2754 17.8137 19.0576 17.885 18.9863L18.7079 18.1652C18.8507 18.0227 19.0773 17.8509 19.3418 17.8509C19.6021 17.8509 19.8162 18.0143 19.9463 18.1568C19.9505 18.161 19.9505 18.161 19.9547 18.1652L22.2679 20.4736C22.7003 20.9009 22.2721 21.7849 22.2721 21.7849Z" stroke="white" stroke-width="2" stroke-linecap="round" stroke-linejoin="round"/>
</svg>
