<svg width="30" height="30" viewBox="0 0 30 30" fill="none" xmlns="http://www.w3.org/2000/svg">
<rect width="30" height="30" rx="4" fill="#B11116"/>
<path d="M6.95989 9.19446L20.8937 22.7977M6.95989 9.19446C7.47832 8.60261 8.25264 8.22687 9.11774 8.22687H13.8281M6.95989 9.19446C6.54293 9.67048 6.2915 10.2863 6.2915 10.9589V20.9763C6.2915 22.4852 7.55685 23.7084 9.11774 23.7084H19.4806C21.0415 23.7084 22.3068 22.4852 22.3068 20.9763V16.8783M13.8281 16.8783L7.70462 22.7977M20.5051 9.38798V9.32978M23.7082 9.32067C23.7082 11.34 20.5051 14.0324 20.5051 14.0324C20.5051 14.0324 17.302 11.34 17.302 9.32067C17.302 7.64781 18.7361 6.29169 20.5051 6.29169C22.2741 6.29169 23.7082 7.64781 23.7082 9.32067Z" stroke="white" stroke-width="2" stroke-linecap="round" stroke-linejoin="round"/>
</svg>
