<svg width="313" height="222" viewBox="0 0 313 222" fill="none" xmlns="http://www.w3.org/2000/svg">
<path d="M122.18 10.9944C118.331 8.31027 113.029 7.38002 108.075 6.39525C90.3933 2.89049 72.4198 4.85096 49.0185 13.4886C47.3693 14.1011 39.6106 18.4284 40.0428 16.2802C40.3717 14.6646 42.5135 13.3853 43.5615 12.7454C53.2726 6.79174 74.3688 1.81337 82.7061 0.780173C119.491 -3.8015 146.625 12.1027 162.05 40.4475C175.36 64.9038 177.569 100.812 191.361 124.78C204.245 147.146 224.923 159.002 250.639 162.612C253.548 163.023 258.006 161.359 259.579 163.775C258.257 164.984 257.895 164.285 257.153 164.424C256.082 165.451 255.279 165.362 255.088 164.549C253.964 165.337 253.718 165.694 254.365 165.598C255.554 164.715 256.672 164.805 256.876 165.782C270.009 165.485 286.179 162.219 302.037 155.672C303.891 154.907 307.773 151.715 310.051 151.243C313.379 150.549 314.61 152.714 309.878 155.876L311.671 157.112C310.459 159.032 309.493 160.348 307.93 161.639C305.506 163.653 295.804 168.235 293.092 169.431C286.768 172.223 280.06 174.442 274.135 176.148C271.676 177.811 269.377 178.161 267.665 177.879C266.204 178.745 265.965 179.092 266.941 178.929C269.442 177.742 272.331 176.746 273.859 177.505C275.046 177.286 280.814 175.999 280.991 176.23C282.149 177.709 277.705 180.126 277.091 180.414C250.633 192.673 225.581 191.085 206.681 186.926C205.315 187.501 203.936 187.588 202.551 187.176C200.973 187.666 202.589 187.944 203.445 187.792C205.531 187.914 207.407 188.696 209.087 190.133C225.212 196.652 244.599 197.493 264.243 197.195C265.112 198.335 264.934 199.235 263.69 199.91C245.363 204.181 231.194 202.355 215.662 201.664C214.364 201.605 212.831 201.399 211.71 201.044C207.697 199.795 204.434 196.184 199.723 196.063L196.693 196.745C183.97 191.395 173.747 182.908 166.019 171.279C165.235 170.398 164.727 169.537 164.507 168.688C163.131 168.436 161.695 167.725 162.101 165.481C160.877 164.204 160.191 164.242 160.036 165.606C161.746 165.996 162.701 167.165 162.889 169.121C164.083 169.093 164.291 169.747 163.507 171.096C172.221 180.462 181.412 189.183 191.096 197.237C195.447 199.958 199.656 202.627 202.535 207.291C207.444 209.901 211.462 212.253 217.211 214.095C222.431 215.774 228.218 216.652 233.601 218.056C233.945 218.649 232.968 221.119 232.26 221.59C231.494 222.099 222.203 221.329 220.88 221.114C215.88 220.283 209.953 218.613 205.404 216.994C201.804 215.719 197.709 211.565 194.389 210.994C193.078 210.772 191.299 212.797 189.991 212.561C185.95 211.849 176.695 201.614 173.556 198.149C158.235 181.193 145.567 157.164 134.072 135.337C132.735 132.665 132.348 132.91 132.902 136.078C137.523 152.671 144.087 165.711 151.071 179.567C150.573 180.586 149.88 180.635 149.006 179.692C143.137 169.979 137.514 160.855 133.281 149.143C124.066 123.654 118.428 97.4273 97.8075 85.5649C96.262 85.5677 95.485 86.0538 95.4663 87.0472C109.207 101.474 111.148 114.904 116.108 138.728C118.134 148.485 120.94 157.494 122.658 167.565L119.981 172.051C118.73 171.607 118.03 170.537 117.423 169.236C113.1 159.969 111.824 140.79 108.831 129.144C97.6987 85.9235 77.1395 76.642 33.6916 81.2439C32.4713 81.3779 31.1719 81.6744 30.4499 80.9134C31.7307 78.6537 34.7769 77.7656 36.025 77.2947C61.6633 67.5363 86.6642 70.9779 101.823 81.0414C106.211 83.9578 110.175 89.803 115.191 92.8894C116.408 93.7747 117.211 94.8391 117.597 96.0964C118.324 96.257 118.711 96.0124 118.768 95.3552C117.732 95.3843 116.783 94.8851 117.703 93.0729C110.14 74.0959 89.8409 56.3239 70.2175 54.5924C50.8336 52.8867 27.462 63.8827 2.67517 75.7452C-0.134751 73.87 9.85259 64.0043 12.5973 60.8649C11.7136 59.0946 8.56468 61.2895 7.28767 60.4246C3.17326 57.619 20.8132 45.8763 20.9302 44.9507C19.0848 43.1211 14.2132 47.4416 11.5058 47.4173C10.3203 47.4051 9.03919 47.3116 11.337 44.5144L10.8899 44.2062C8.86454 45.3644 -0.496446 50.2744 0.0205102 47.5344C1.17114 45.4636 2.28832 44.8094 3.62203 43.5924C28.3096 21.072 75.0824 11.5324 94.0455 10.1458C104.514 8.13571 112.234 12.1884 122.171 10.9882C123.157 11.3175 123.157 11.3175 122.171 10.9882L122.18 10.9944Z" fill="#FBB943"/>
<path d="M122.18 10.9944C118.331 8.31027 113.029 7.38002 108.075 6.39525C90.3933 2.89049 72.4198 4.85096 49.0185 13.4886C47.3693 14.1011 39.6106 18.4284 40.0428 16.2802C40.3717 14.6646 42.5135 13.3853 43.5615 12.7454C53.2726 6.79174 74.3688 1.81337 82.7061 0.780173C119.491 -3.8015 146.625 12.1027 162.05 40.4475C175.36 64.9038 177.569 100.812 191.361 124.78C204.245 147.146 224.923 159.002 250.639 162.612C253.548 163.023 258.006 161.359 259.579 163.775C258.257 164.984 257.895 164.285 257.153 164.424C256.082 165.451 255.279 165.362 255.088 164.549C253.964 165.337 253.718 165.694 254.365 165.598C255.554 164.715 256.672 164.805 256.876 165.782C270.009 165.485 286.179 162.219 302.037 155.672C303.891 154.907 307.773 151.715 310.051 151.243C313.379 150.549 314.61 152.714 309.878 155.876L311.671 157.112C310.459 159.032 309.493 160.348 307.93 161.639C305.506 163.653 295.804 168.235 293.092 169.431C286.768 172.223 280.06 174.442 274.135 176.148C271.676 177.811 269.377 178.161 267.665 177.879C266.204 178.745 265.965 179.092 266.941 178.929C269.442 177.742 272.331 176.746 273.859 177.505C275.046 177.286 280.814 175.999 280.991 176.23C282.149 177.709 277.705 180.126 277.091 180.414C250.633 192.673 225.581 191.085 206.681 186.926C205.315 187.501 203.936 187.588 202.551 187.176C200.973 187.666 202.589 187.944 203.445 187.792C205.531 187.914 207.407 188.696 209.087 190.133C225.212 196.652 244.599 197.493 264.243 197.195C265.112 198.335 264.934 199.235 263.69 199.91C245.363 204.181 231.194 202.355 215.662 201.664C214.364 201.605 212.831 201.399 211.71 201.044C207.697 199.795 204.434 196.184 199.723 196.063L196.693 196.745C183.97 191.395 173.747 182.908 166.019 171.279C165.235 170.398 164.727 169.537 164.507 168.688C163.131 168.436 161.695 167.725 162.101 165.481C160.877 164.204 160.191 164.242 160.036 165.606C161.746 165.996 162.701 167.165 162.889 169.121C164.083 169.093 164.291 169.747 163.507 171.096C172.221 180.462 181.412 189.183 191.096 197.237C195.447 199.958 199.656 202.627 202.535 207.291C207.444 209.901 211.462 212.253 217.211 214.095C222.431 215.774 228.218 216.652 233.601 218.056C233.945 218.649 232.968 221.119 232.26 221.59C231.494 222.099 222.203 221.329 220.88 221.114C215.88 220.283 209.953 218.613 205.404 216.994C201.804 215.719 197.709 211.565 194.389 210.994C193.078 210.772 191.299 212.797 189.991 212.561C185.95 211.849 176.695 201.614 173.556 198.149C158.235 181.193 145.567 157.164 134.072 135.337C132.735 132.665 132.348 132.91 132.902 136.078C137.523 152.671 144.087 165.711 151.071 179.567C150.573 180.586 149.88 180.635 149.006 179.692C143.137 169.979 137.514 160.855 133.281 149.143C124.066 123.654 118.428 97.4273 97.8075 85.5649C96.262 85.5677 95.485 86.0538 95.4663 87.0472C109.207 101.474 111.148 114.904 116.108 138.728C118.134 148.485 120.94 157.494 122.658 167.565L119.981 172.051C118.73 171.607 118.03 170.537 117.423 169.236C113.1 159.969 111.824 140.79 108.831 129.144C97.6987 85.9235 77.1395 76.642 33.6916 81.2439C32.4713 81.3779 31.1719 81.6744 30.4499 80.9134C31.7307 78.6537 34.7769 77.7656 36.025 77.2947C61.6633 67.5363 86.6642 70.9779 101.823 81.0414C106.211 83.9578 110.175 89.803 115.191 92.8894C116.408 93.7747 117.211 94.8391 117.597 96.0964C118.324 96.257 118.711 96.0124 118.768 95.3552C117.732 95.3843 116.783 94.8851 117.703 93.0729C110.14 74.0959 89.8409 56.3239 70.2175 54.5924C50.8336 52.8867 27.462 63.8827 2.67517 75.7452C-0.134751 73.87 9.85259 64.0043 12.5973 60.8649C11.7136 59.0946 8.56468 61.2895 7.28767 60.4246C3.17326 57.619 20.8132 45.8763 20.9302 44.9507C19.0848 43.1211 14.2132 47.4416 11.5058 47.4173C10.3203 47.4051 9.03919 47.3116 11.337 44.5144L10.8899 44.2062C8.86454 45.3644 -0.496446 50.2744 0.0205102 47.5344C1.17114 45.4636 2.28832 44.8094 3.62203 43.5924C28.3096 21.072 75.0824 11.5324 94.0455 10.1458C104.514 8.13571 112.234 12.1884 122.171 10.9882C123.157 11.3175 123.157 11.3175 122.171 10.9882L122.18 10.9944Z" fill="url(#paint0_radial_73_1391)"/>
<defs>
<radialGradient id="paint0_radial_73_1391" cx="0" cy="0" r="1" gradientUnits="userSpaceOnUse" gradientTransform="translate(156.92 101.835) rotate(-55.4174) scale(76.8402 173.299)">
<stop stop-color="#FFE4B4"/>
<stop offset="1" stop-color="#FBB943"/>
</radialGradient>
</defs>
</svg>
