<svg width="32" height="32" viewBox="0 0 32 32" fill="none" xmlns="http://www.w3.org/2000/svg">
<rect width="32" height="32" rx="4" fill="#B11116"/>
<path d="M24.9815 11.375C24.9677 11.2148 24.6101 10.9071 24.4587 10.8522C24.307 10.797 24.1371 10.8346 24.023 10.9481L21.7334 13.2377L18.7595 10.2637L21.0949 7.93712C21.2092 7.82337 21.2464 7.65413 21.1914 7.50324C21.1358 7.35205 20.7691 7.03175 20.6079 7.01787C19.1896 6.89613 17.7999 7.40061 16.7951 8.40174C15.419 9.77278 15.0546 11.7749 15.6999 13.4814C15.6294 13.5406 15.5598 13.6034 15.4911 13.671L7.69554 20.9993C7.69279 21.002 7.69008 21.0049 7.6871 21.0075C6.77031 21.9209 6.77031 23.407 7.6871 24.3206C8.60404 25.2339 10.0849 25.2228 11.0015 24.3094C11.0055 24.3057 11.0091 24.302 11.0127 24.2979L18.3045 16.4712C18.371 16.4047 18.4327 16.3351 18.4909 16.2637C20.2044 16.9077 22.2153 16.5455 23.5926 15.1736C24.5972 14.1724 25.1039 12.7878 24.9815 11.375Z" stroke="white" stroke-width="2" stroke-linejoin="round"/>
</svg>
