<svg width="33" height="33" viewBox="0 0 33 33" fill="none" xmlns="http://www.w3.org/2000/svg">
<rect width="33" height="33" rx="4" fill="#B11116"/>
<path d="M8.1665 19.1041V16.6778C8.1665 15.4992 9.09924 14.5437 10.2498 14.5437M8.1665 19.1041C8.1665 20.2828 9.09924 21.2383 10.2498 21.2383H22.7498C23.9004 21.2383 24.8332 20.2828 24.8332 19.1041M8.1665 19.1041V22.3689C8.1665 23.1547 8.78833 23.7916 9.55539 23.7916H10.9443C11.7113 23.7916 12.3332 23.1547 12.3332 22.3689V21.2383M24.8332 19.1041V16.6778C24.8332 15.4992 23.9004 14.5437 22.7498 14.5437H10.2498M24.8332 19.1041V22.3689C24.8332 23.1547 24.2113 23.7916 23.4443 23.7916H22.0554C21.2883 23.7916 20.6665 23.1547 20.6665 22.3689V21.2383M10.2498 14.5437L11.3638 10.2645C11.5259 9.64166 12.0765 9.20831 12.7058 9.20831H20.3599C20.9577 9.20831 21.4885 9.60019 21.6775 10.1812L23.0971 14.5437M10.5971 17.7449H13.0276M19.9721 17.7449H22.4026" stroke="white" stroke-width="2" stroke-linecap="round" stroke-linejoin="round"/>
</svg>
