<svg width="330" height="150" viewBox="0 0 330 150" fill="none" xmlns="http://www.w3.org/2000/svg">
<path d="M227.619 7.46539C234.947 4.53839 255.807 -6.47794 258.192 5.38042C259.115 9.99144 249.261 12.0063 248.78 12.5977C248.248 13.2593 249.091 15.4144 248.539 16.3166C248.068 17.0984 243.547 16.898 245.181 18.5018L287.763 8.46779C288.234 11.054 287.302 10.2421 285.768 10.9337C278.361 14.2516 267.304 16.3968 259.185 19.4741C256.839 20.3562 254.774 21.6393 252.679 22.5013L250.333 24.9272C240.901 29.2776 231.318 33.1468 221.605 36.5349C220.923 37.9383 219.129 38.6199 217.595 38.5397C216.964 39.0108 216.914 39.3617 217.595 39.5421C218.808 38.259 220.903 37.0561 222.607 37.5373C232.04 32.375 242.004 28.0246 252.499 24.4761L258.693 25.5085C259.175 26.3806 260.177 26.3806 261.701 25.5085C269.319 23.9047 272.246 23.2131 279.984 22.331C283.593 21.92 299.381 15.5748 301.797 18.5018C301.827 19.4039 300.854 19.9352 300.163 20.3663C294.399 23.9448 282.34 25.2078 276.436 28.4857C275.363 29.0871 275.804 30.6709 275.183 31.4327C274.241 32.5754 272.507 32.0342 272.737 33.5177L322.456 21.5691C323.869 21.4188 325.624 22.8321 323.859 24.0049C319.89 26.6312 311.54 28.4756 306.819 30.5205C306.127 31.0518 306.468 31.3826 307.821 31.5229C309.074 31.4527 316.582 30.9816 313.855 34.049C312.021 36.1139 301.175 40.1836 297.797 41.5469C296.855 42.9903 295.331 42.9101 293.787 42.5493C292.815 43.4214 293.487 43.7522 295.792 43.5517C295.451 42.5092 296.714 42.2285 297.797 42.5493C299.722 42.0381 306.057 40.2137 307.29 40.5545C309.695 41.2161 308.382 42.6395 306.819 43.5517L307.821 44.5541C320.201 41.7474 315.389 47.1503 315.84 47.5513C316.702 48.3331 324.751 44.5942 328.621 46.2882C330.034 46.9097 330.164 46.5288 329.874 48.5436C308.192 54.5881 287.212 62.3867 266.723 71.6088L263.726 75.1572C256.027 79.3072 246.905 83.2566 238.656 85.6423C237.322 86.5746 237.984 86.9054 240.66 86.6447C246.575 83.2566 263.866 73.4833 270.091 74.0747C270.652 74.1248 271.193 74.3453 271.735 74.616C275.504 73.3329 297.937 66.256 299.802 67.6092C299.892 68.2106 299.261 68.8221 298.809 69.1128C291.161 74.0446 269.269 79.1769 259.455 82.8857C216.673 99.0845 181.038 119.373 146.395 149.254C134.737 151.851 147.437 143.02 150.445 140.774C156.259 132.615 165.711 127.332 174.502 122.731C177.419 120.466 177.088 120.135 173.5 121.729C173.299 122.3 173.059 122.811 172.658 123.102C169.26 125.528 151.507 138.198 149.613 138.419C148.5 138.549 147.437 138.238 146.435 137.767C143.147 139.321 139.909 139.281 137.464 140.323C135.288 141.255 127.309 147.43 125.385 145.776C124.884 143.671 126.357 143.681 127.39 142.779C129.084 138.328 128.512 137.847 125.706 141.336L122.378 141.777C121.896 142.097 120.242 142.077 119.03 142.899C116.804 144.393 113.466 148.422 110.67 148.643C109.316 148.753 108.033 147.54 108.344 146.297C108.615 145.235 123.961 135.522 126.387 133.757C127.329 132.555 126.999 132.214 125.385 132.755C123.621 133.366 120.643 134.098 118.879 133.807C117.596 133.587 119.491 129.918 116.874 130.77C115.782 131.121 112.805 134.229 111.211 135.131C108.725 136.524 93.0273 144.794 91.7743 144.774C88.8273 144.724 88.8373 141.366 88.1557 140.864C87.5242 140.403 82.9833 143.02 80.2367 141.315C77.4902 139.611 81.7604 137.877 81.2692 135.782C77.3098 137.597 68.6591 139.24 73.7012 132.715C74.5632 131.602 82.3418 123.954 83.7752 122.751C90.6918 116.937 99.3224 113.068 106.329 107.715C107.101 106.402 108.434 105.4 110.339 104.708C111.892 102.853 113.566 101.851 115.351 101.701C117.315 100.247 116.985 99.9165 114.348 100.698C113.506 102.122 112.163 103.455 110.339 104.708C108.534 106.061 106.86 106.733 105.327 106.713C95.6135 111.645 86.1309 116.225 76.568 120.536C72.5183 122.36 63.196 128.304 59.7277 128.785C57.8332 129.046 57.6928 128.164 58.6952 126.741C60.3993 124.325 65.3612 122.972 67.2357 120.245C63.4867 119.323 66.4538 117.759 66.2232 114.742C59.5172 117.478 53.974 122.621 47.268 125.347C45.8446 125.929 44.4211 126.099 45.193 124.275C46.1252 122.069 65.5817 109.56 69.2405 106.723C69.471 105.891 69.1202 105.57 68.2381 105.72C65.8524 107.064 60.8705 110.552 58.7053 110.742C55.8284 110.993 58.1038 108.547 56.7105 107.735C51.6284 111.434 41.023 121.498 39.5996 109.76C39.0483 105.229 40.8626 106.562 42.1657 105.72L43.8698 102.232L71.9169 83.417L44.5314 101.179C43.128 101.751 41.6746 101.921 40.1609 101.711C33.7055 106.051 27.5508 110.111 21.6367 114.722C14.7702 120.075 8.86611 127.683 0.0650623 129.778C-0.235657 128.324 0.566244 127.563 1.23785 126.45C2.92188 123.663 18.1282 110.432 21.5965 107.715C44.6116 89.692 72.7288 76.2298 98.3401 62.1662C136.171 41.3965 175.204 18.2412 216.332 4.73887C219.019 3.85676 222.296 2.27298 225.113 2.42334C227.669 2.55365 226.196 3.19518 226.607 4.48827C226.116 6.20237 224.923 6.91408 223.439 7.56564C201.366 17.2588 179.504 26.972 158.444 38.5698C158.344 39.2915 158.684 39.6022 159.446 39.5722C178.712 26.521 200.404 17.2488 221.855 8.22722C223.76 7.42531 225.514 6.82386 227.609 7.49546L227.619 7.46539Z" fill="#FDFDFD"/>
<path d="M227.619 7.46539C234.947 4.53839 255.807 -6.47794 258.192 5.38042C259.115 9.99144 249.261 12.0063 248.78 12.5977C248.248 13.2593 249.091 15.4144 248.539 16.3166C248.068 17.0984 243.547 16.898 245.181 18.5018L287.763 8.46779C288.234 11.054 287.302 10.2421 285.768 10.9337C278.361 14.2516 267.304 16.3968 259.185 19.4741C256.839 20.3562 254.774 21.6393 252.679 22.5013L250.333 24.9272C240.901 29.2776 231.318 33.1468 221.605 36.5349C220.923 37.9383 219.129 38.6199 217.595 38.5397C216.964 39.0108 216.914 39.3617 217.595 39.5421C218.808 38.259 220.903 37.0561 222.607 37.5373C232.04 32.375 242.004 28.0246 252.499 24.4761L258.693 25.5085C259.175 26.3806 260.177 26.3806 261.701 25.5085C269.319 23.9047 272.246 23.2131 279.984 22.331C283.593 21.92 299.381 15.5748 301.797 18.5018C301.827 19.4039 300.854 19.9352 300.163 20.3663C294.399 23.9448 282.34 25.2078 276.436 28.4857C275.363 29.0871 275.804 30.6709 275.183 31.4327C274.241 32.5754 272.507 32.0342 272.737 33.5177L322.456 21.5691C323.869 21.4188 325.624 22.8321 323.859 24.0049C319.89 26.6312 311.54 28.4756 306.819 30.5205C306.127 31.0518 306.468 31.3826 307.821 31.5229C309.074 31.4527 316.582 30.9816 313.855 34.049C312.021 36.1139 301.175 40.1836 297.797 41.5469C296.855 42.9903 295.331 42.9101 293.787 42.5493C292.815 43.4214 293.487 43.7522 295.792 43.5517C295.451 42.5092 296.714 42.2285 297.797 42.5493C299.722 42.0381 306.057 40.2137 307.29 40.5545C309.695 41.2161 308.382 42.6395 306.819 43.5517L307.821 44.5541C320.201 41.7474 315.389 47.1503 315.84 47.5513C316.702 48.3331 324.751 44.5942 328.621 46.2882C330.034 46.9097 330.164 46.5288 329.874 48.5436C308.192 54.5881 287.212 62.3867 266.723 71.6088L263.726 75.1572C256.027 79.3072 246.905 83.2566 238.656 85.6423C237.322 86.5746 237.984 86.9054 240.66 86.6447C246.575 83.2566 263.866 73.4833 270.091 74.0747C270.652 74.1248 271.193 74.3453 271.735 74.616C275.504 73.3329 297.937 66.256 299.802 67.6092C299.892 68.2106 299.261 68.8221 298.809 69.1128C291.161 74.0446 269.269 79.1769 259.455 82.8857C216.673 99.0845 181.038 119.373 146.395 149.254C134.737 151.851 147.437 143.02 150.445 140.774C156.259 132.615 165.711 127.332 174.502 122.731C177.419 120.466 177.088 120.135 173.5 121.729C173.299 122.3 173.059 122.811 172.658 123.102C169.26 125.528 151.507 138.198 149.613 138.419C148.5 138.549 147.437 138.238 146.435 137.767C143.147 139.321 139.909 139.281 137.464 140.323C135.288 141.255 127.309 147.43 125.385 145.776C124.884 143.671 126.357 143.681 127.39 142.779C129.084 138.328 128.512 137.847 125.706 141.336L122.378 141.777C121.896 142.097 120.242 142.077 119.03 142.899C116.804 144.393 113.466 148.422 110.67 148.643C109.316 148.753 108.033 147.54 108.344 146.297C108.615 145.235 123.961 135.522 126.387 133.757C127.329 132.555 126.999 132.214 125.385 132.755C123.621 133.366 120.643 134.098 118.879 133.807C117.596 133.587 119.491 129.918 116.874 130.77C115.782 131.121 112.805 134.229 111.211 135.131C108.725 136.524 93.0273 144.794 91.7743 144.774C88.8273 144.724 88.8373 141.366 88.1557 140.864C87.5242 140.403 82.9833 143.02 80.2367 141.315C77.4902 139.611 81.7604 137.877 81.2692 135.782C77.3098 137.597 68.6591 139.24 73.7012 132.715C74.5632 131.602 82.3418 123.954 83.7752 122.751C90.6918 116.937 99.3224 113.068 106.329 107.715C107.101 106.402 108.434 105.4 110.339 104.708C111.892 102.853 113.566 101.851 115.351 101.701C117.315 100.247 116.985 99.9165 114.348 100.698C113.506 102.122 112.163 103.455 110.339 104.708C108.534 106.061 106.86 106.733 105.327 106.713C95.6135 111.645 86.1309 116.225 76.568 120.536C72.5183 122.36 63.196 128.304 59.7277 128.785C57.8332 129.046 57.6928 128.164 58.6952 126.741C60.3993 124.325 65.3612 122.972 67.2357 120.245C63.4867 119.323 66.4538 117.759 66.2232 114.742C59.5172 117.478 53.974 122.621 47.268 125.347C45.8446 125.929 44.4211 126.099 45.193 124.275C46.1252 122.069 65.5817 109.56 69.2405 106.723C69.471 105.891 69.1202 105.57 68.2381 105.72C65.8524 107.064 60.8705 110.552 58.7053 110.742C55.8284 110.993 58.1038 108.547 56.7105 107.735C51.6284 111.434 41.023 121.498 39.5996 109.76C39.0483 105.229 40.8626 106.562 42.1657 105.72L43.8698 102.232L71.9169 83.417L44.5314 101.179C43.128 101.751 41.6746 101.921 40.1609 101.711C33.7055 106.051 27.5508 110.111 21.6367 114.722C14.7702 120.075 8.86611 127.683 0.0650623 129.778C-0.235657 128.324 0.566244 127.563 1.23785 126.45C2.92188 123.663 18.1282 110.432 21.5965 107.715C44.6116 89.692 72.7288 76.2298 98.3401 62.1662C136.171 41.3965 175.204 18.2412 216.332 4.73887C219.019 3.85676 222.296 2.27298 225.113 2.42334C227.669 2.55365 226.196 3.19518 226.607 4.48827C226.116 6.20237 224.923 6.91408 223.439 7.56564C201.366 17.2588 179.504 26.972 158.444 38.5698C158.344 39.2915 158.684 39.6022 159.446 39.5722C178.712 26.521 200.404 17.2488 221.855 8.22722C223.76 7.42531 225.514 6.82386 227.609 7.49546L227.619 7.46539Z" fill="url(#paint0_radial_142_2217)"/>
<defs>
<radialGradient id="paint0_radial_142_2217" cx="0" cy="0" r="1" gradientUnits="userSpaceOnUse" gradientTransform="translate(165.637 66.1839) rotate(-90) scale(81.3737 179.348)">
<stop stop-color="#FFE4B4"/>
<stop offset="1" stop-color="#FBB943"/>
</radialGradient>
</defs>
</svg>
