<svg width="32" height="32" viewBox="0 0 32 32" fill="none" xmlns="http://www.w3.org/2000/svg">
<path d="M0 4C0 1.79086 1.79086 0 4 0H28C30.2091 0 32 1.79086 32 4V28C32 30.2091 30.2091 32 28 32H4C1.79086 32 0 30.2091 0 28V4Z" fill="#F1F1EA" fill-opacity="0.2"/>
<path d="M4 0.75H28C29.7949 0.75 31.25 2.20507 31.25 4V28C31.25 29.7949 29.7949 31.25 28 31.25H4C2.20507 31.25 0.75 29.7949 0.75 28V4C0.75 2.20507 2.20507 0.75 4 0.75Z" stroke="#B9B9B9" stroke-opacity="0.3" stroke-width="1.5"/>
<path d="M15 23C19.4183 23 23 19.4183 23 15C23 10.5817 19.4183 7 15 7C10.5817 7 7 10.5817 7 15C7 19.4183 10.5817 23 15 23Z" stroke="white" stroke-width="2" stroke-linecap="round" stroke-linejoin="round"/>
<path d="M24.9999 25L20.6499 20.65" stroke="white" stroke-width="2" stroke-linecap="round" stroke-linejoin="round"/>
</svg>
