<svg width="40" height="40" viewBox="0 0 40 40" fill="none" xmlns="http://www.w3.org/2000/svg">
<rect width="40" height="40" rx="4" fill="#B11116"/>
<path d="M9.3335 23.3333V20.2276C9.3335 18.719 10.5274 17.4959 12.0002 17.4959M9.3335 23.3333C9.3335 24.842 10.5274 26.065 12.0002 26.065H28.0002C29.4729 26.065 30.6668 24.842 30.6668 23.3333M9.3335 23.3333V27.5122C9.3335 28.518 10.1294 29.3333 11.1113 29.3333H12.8891C13.8709 29.3333 14.6668 28.518 14.6668 27.5122V26.065M30.6668 23.3333V20.2276C30.6668 18.719 29.4729 17.4959 28.0002 17.4959H12.0002M30.6668 23.3333V27.5122C30.6668 28.518 29.8709 29.3333 28.8891 29.3333H27.1113C26.1294 29.3333 25.3335 28.518 25.3335 27.5122V26.065M12.0002 17.4959L13.426 12.0186C13.6335 11.2213 14.3383 10.6667 15.1438 10.6667H24.941C25.7062 10.6667 26.3856 11.1683 26.6276 11.9119L28.4446 17.4959M12.4446 21.5935H15.5557M24.4446 21.5935H27.5557" stroke="white" stroke-width="2" stroke-linecap="round" stroke-linejoin="round"/>
</svg>
