<svg width="32" height="32" viewBox="0 0 32 32" fill="none" xmlns="http://www.w3.org/2000/svg">
<rect width="32" height="32" rx="4" fill="#B11116"/>
<path d="M24.3812 14.875L22.75 13.2449V9.25C22.75 8.63125 22.2438 8.125 21.625 8.125H20.5C19.8812 8.125 19.375 8.63125 19.375 9.25V9.87212L17.125 7.62438C16.8179 7.33413 16.5366 7 16 7C15.4634 7 15.1821 7.33413 14.875 7.62438L7.61875 14.875C7.26775 15.2406 7 15.5073 7 16C7 16.6334 7.486 17.125 8.125 17.125H9.25V23.875C9.25 24.4938 9.75625 25 10.375 25H12.625C13.2463 25 13.75 24.4963 13.75 23.875V19.375C13.75 18.7562 14.2562 18.25 14.875 18.25H17.125C17.7438 18.25 18.25 18.7562 18.25 19.375V23.875C18.25 24.4963 18.1912 25 18.8125 25H21.625C22.2438 25 22.75 24.4938 22.75 23.875V17.125H23.875C24.514 17.125 25 16.6334 25 16C25 15.5073 24.7322 15.2406 24.3812 14.875Z" stroke="white" stroke-width="2" stroke-linejoin="round"/>
</svg>
