<svg width="401" height="141" viewBox="0 0 401 141" fill="none" xmlns="http://www.w3.org/2000/svg">
<path d="M300.535 7.40472C306.436 7.37929 312.589 9.6165 318.421 11.6122C339.23 18.7433 356.44 30.5267 374.503 50.865C375.773 52.3014 380.718 60.2461 381.804 58.2377C382.616 56.725 381.312 54.4622 380.684 53.3436C374.879 42.9584 356.59 26.9295 348.695 21.3619C313.88 -3.22196 274.434 -5.52275 238.232 9.01909C206.994 21.5652 179.076 49.7972 147.689 61.6697C118.384 72.7413 88.5132 70.7711 59.3112 59.1783C56.0058 57.869 52.5775 53.9793 49.2243 55.0725C49.7297 56.814 50.6039 56.4454 51.2731 56.9792C51.6487 58.4283 52.5433 58.8097 53.3219 58.2504C53.9229 59.5342 53.9229 59.9664 53.3219 59.5215C52.7209 58.1233 51.4985 57.564 50.5902 58.2504C37.2048 50.5727 22.795 38.7384 11.0486 24.3872C9.6759 22.7093 7.93448 17.8916 5.91299 16.2137C2.96274 13.7604 0.142242 14.8409 2.78519 20.1161H0.0466309C-0.069458 22.3787 -0.00799561 24.0058 0.688568 25.9507C1.76077 28.976 8.53543 38.2299 10.4886 40.7468C15.0437 46.6194 20.4047 52.2379 25.3218 56.992C26.6808 59.7503 28.8116 61.3393 30.7852 62.0765C31.6799 63.6146 31.6799 64.0341 30.7852 63.3477C29.0438 60.9579 26.7628 58.5046 24.6389 58.2631C23.5667 57.4114 18.513 53.0896 18.1647 53.1785C15.9111 53.7378 18.7862 58.2376 19.2164 58.8223C37.8604 83.8638 64.9317 96.7405 87.4683 104.024C88.4722 105.27 89.8381 106.121 91.5659 106.566C92.8498 107.863 90.9786 107.177 90.2 106.566C87.9532 105.486 85.4537 105.066 82.6878 105.295C61.3394 101.52 40.6672 91.2365 20.5413 79.8725C18.8272 80.3174 18.3696 81.1563 19.1755 82.4147C35.1013 96.2956 51.075 102.816 67.6497 111.041C69.036 111.727 70.7707 112.426 72.1844 112.769C77.2312 114.015 83.1863 112.897 88.1512 115.464L90.801 117.74C107.792 120.549 124.435 119.367 140.737 114.193C142.178 113.914 143.318 113.494 144.151 112.922C145.756 113.494 147.75 113.723 148.932 111.651C151.11 111.295 151.793 111.715 150.981 112.922C148.932 112.274 147.108 112.693 145.517 114.193C144.302 113.494 143.619 113.914 143.468 115.464C127.761 118.223 112.02 120.18 96.2439 121.312C89.7971 121.083 83.5346 120.892 77.2244 123.091C70.279 122.456 64.44 122.112 57.1736 120.371C50.5697 118.795 43.9521 116.24 37.3755 114.346C36.597 114.638 35.8457 117.219 36.2419 118.007C36.6721 118.858 46.8409 123.485 48.3638 124.057C54.1346 126.205 61.4624 128.188 67.3288 129.434C71.9659 130.426 79.1707 129.332 83.0156 130.743C84.5317 131.303 84.9278 133.972 86.4507 134.519C91.1425 136.222 108.031 133.057 113.754 131.989C141.72 126.739 171.988 114.18 199.469 102.766C202.76 101.329 202.986 101.749 200.152 104.037C183.522 115.045 167.419 122.036 150.298 129.459C150.086 130.578 150.769 131.01 152.347 130.731C165.356 126.078 177.69 121.769 190.433 114.549C218.167 98.8378 242.725 80.4952 272.542 82.4273C274.14 83.3044 274.598 84.1433 273.908 84.9696C249.384 89.0372 237.788 98.9649 215.647 115.719C206.585 122.583 197.249 128.392 188.282 135.688L187.852 140.887C189.464 141.23 190.952 140.747 192.51 140.023C203.6 134.862 218.611 119.837 230.023 111.969C272.399 82.7834 300.31 86.8 342.009 115.172C343.177 115.973 344.311 116.952 345.602 116.736C345.889 114.155 343.369 111.702 342.412 110.609C322.833 88.0839 294.491 76.7581 271.613 76.4403C264.989 76.3513 256.712 78.9064 249.316 78.6013C247.424 78.6395 245.833 79.0589 244.535 79.8725C243.668 79.5928 243.442 79.1733 243.852 78.6013C244.904 79.2115 246.242 79.3386 246.584 77.3302C267.96 66.0298 301.662 62.9281 323.215 72.6142C344.502 82.1858 360.851 104.443 378.048 128.214C382.295 128.265 378.997 114.511 378.396 110.38C380.574 109.426 382.268 113.011 384.208 113.024C390.47 113.049 380.588 93.4227 381.128 92.5964C384.344 92.1388 386.304 98.4437 389.125 99.9564C390.361 100.617 391.754 101.266 391.372 97.6684H392.055C393.325 99.7658 399.512 109.096 400.933 106.554C401.219 104.202 400.53 103.033 400.017 101.278C390.532 68.8135 348.914 34.5055 330.27 22.633C320.866 15.057 309.98 14.0146 300.549 7.40472C299.292 7.11659 299.292 7.11659 300.549 7.40472H300.535Z" fill="#FBB943"/>
<path d="M300.535 7.40472C306.436 7.37929 312.589 9.6165 318.421 11.6122C339.23 18.7433 356.44 30.5267 374.503 50.865C375.773 52.3014 380.718 60.2461 381.804 58.2377C382.616 56.725 381.312 54.4622 380.684 53.3436C374.879 42.9584 356.59 26.9295 348.695 21.3619C313.88 -3.22196 274.434 -5.52275 238.232 9.01909C206.994 21.5652 179.076 49.7972 147.689 61.6697C118.384 72.7413 88.5132 70.7711 59.3112 59.1783C56.0058 57.869 52.5775 53.9793 49.2243 55.0725C49.7297 56.814 50.6039 56.4454 51.2731 56.9792C51.6487 58.4283 52.5433 58.8097 53.3219 58.2504C53.9229 59.5342 53.9229 59.9664 53.3219 59.5215C52.7209 58.1233 51.4985 57.564 50.5902 58.2504C37.2048 50.5727 22.795 38.7384 11.0486 24.3872C9.6759 22.7093 7.93448 17.8916 5.91299 16.2137C2.96274 13.7604 0.142242 14.8409 2.78519 20.1161H0.0466309C-0.069458 22.3787 -0.00799561 24.0058 0.688568 25.9507C1.76077 28.976 8.53543 38.2299 10.4886 40.7468C15.0437 46.6194 20.4047 52.2379 25.3218 56.992C26.6808 59.7503 28.8116 61.3393 30.7852 62.0765C31.6799 63.6146 31.6799 64.0341 30.7852 63.3477C29.0438 60.9579 26.7628 58.5046 24.6389 58.2631C23.5667 57.4114 18.513 53.0896 18.1647 53.1785C15.9111 53.7378 18.7862 58.2376 19.2164 58.8223C37.8604 83.8638 64.9317 96.7405 87.4683 104.024C88.4722 105.27 89.8381 106.121 91.5659 106.566C92.8498 107.863 90.9786 107.177 90.2 106.566C87.9532 105.486 85.4537 105.066 82.6878 105.295C61.3394 101.52 40.6672 91.2365 20.5413 79.8725C18.8272 80.3174 18.3696 81.1563 19.1755 82.4147C35.1013 96.2956 51.075 102.816 67.6497 111.041C69.036 111.727 70.7707 112.426 72.1844 112.769C77.2312 114.015 83.1863 112.897 88.1512 115.464L90.801 117.74C107.792 120.549 124.435 119.367 140.737 114.193C142.178 113.914 143.318 113.494 144.151 112.922C145.756 113.494 147.75 113.723 148.932 111.651C151.11 111.295 151.793 111.715 150.981 112.922C148.932 112.274 147.108 112.693 145.517 114.193C144.302 113.494 143.619 113.914 143.468 115.464C127.761 118.223 112.02 120.18 96.2439 121.312C89.7971 121.083 83.5346 120.892 77.2244 123.091C70.279 122.456 64.44 122.112 57.1736 120.371C50.5697 118.795 43.9521 116.24 37.3755 114.346C36.597 114.638 35.8457 117.219 36.2419 118.007C36.6721 118.858 46.8409 123.485 48.3638 124.057C54.1346 126.205 61.4624 128.188 67.3288 129.434C71.9659 130.426 79.1707 129.332 83.0156 130.743C84.5317 131.303 84.9278 133.972 86.4507 134.519C91.1425 136.222 108.031 133.057 113.754 131.989C141.72 126.739 171.988 114.18 199.469 102.766C202.76 101.329 202.986 101.749 200.152 104.037C183.522 115.045 167.419 122.036 150.298 129.459C150.086 130.578 150.769 131.01 152.347 130.731C165.356 126.078 177.69 121.769 190.433 114.549C218.167 98.8378 242.725 80.4952 272.542 82.4273C274.14 83.3044 274.598 84.1433 273.908 84.9696C249.384 89.0372 237.788 98.9649 215.647 115.719C206.585 122.583 197.249 128.392 188.282 135.688L187.852 140.887C189.464 141.23 190.952 140.747 192.51 140.023C203.6 134.862 218.611 119.837 230.023 111.969C272.399 82.7834 300.31 86.8 342.009 115.172C343.177 115.973 344.311 116.952 345.602 116.736C345.889 114.155 343.369 111.702 342.412 110.609C322.833 88.0839 294.491 76.7581 271.613 76.4403C264.989 76.3513 256.712 78.9064 249.316 78.6013C247.424 78.6395 245.833 79.0589 244.535 79.8725C243.668 79.5928 243.442 79.1733 243.852 78.6013C244.904 79.2115 246.242 79.3386 246.584 77.3302C267.96 66.0298 301.662 62.9281 323.215 72.6142C344.502 82.1858 360.851 104.443 378.048 128.214C382.295 128.265 378.997 114.511 378.396 110.38C380.574 109.426 382.268 113.011 384.208 113.024C390.47 113.049 380.588 93.4227 381.128 92.5964C384.344 92.1388 386.304 98.4437 389.125 99.9564C390.361 100.617 391.754 101.266 391.372 97.6684H392.055C393.325 99.7658 399.512 109.096 400.933 106.554C401.219 104.202 400.53 103.033 400.017 101.278C390.532 68.8135 348.914 34.5055 330.27 22.633C320.866 15.057 309.98 14.0146 300.549 7.40472C299.292 7.11659 299.292 7.11659 300.549 7.40472H300.535Z" fill="url(#paint0_radial_73_1393)"/>
<defs>
<radialGradient id="paint0_radial_73_1393" cx="0" cy="0" r="1" gradientUnits="userSpaceOnUse" gradientTransform="translate(199.726 62.3261) rotate(-90) scale(76.6304 217.935)">
<stop stop-color="#FFE4B4"/>
<stop offset="1" stop-color="#FBB943"/>
</radialGradient>
</defs>
</svg>
